<!DOCTYPE svg PUBLIC "-//W3C//DTD SVG 1.1//EN" "http://www.w3.org/Graphics/SVG/1.1/DTD/svg11.dtd">
<!-- Uploaded to: SVG Repo, www.svgrepo.com, Transformed by: SVG Repo Mixer Tools -->
<svg width="800px" height="800px" viewBox="0 0 256 256" style="fill-rule:evenodd;clip-rule:evenodd;stroke-linejoin:round;stroke-miterlimit:1.41421;" version="1.1" xml:space="preserve" xmlns="http://www.w3.org/2000/svg" xmlns:serif="http://www.serif.com/" xmlns:xlink="http://www.w3.org/1999/xlink" fill="#000000">
<g id="SVGRepo_bgCarrier" stroke-width="0"/>
<g id="SVGRepo_tracerCarrier" stroke-linecap="round" stroke-linejoin="round"/>
<g id="SVGRepo_iconCarrier">
<path d="M35.34,42.231c5.91,0.088 12.356,0.707 18.631,0.997c0,0 5.633,1.484 5.722,5.872c0.064,3.169 -2.732,6.128 -6.01,6.122c-5.929,-0.011 -12.148,-0.672 -18.097,-0.981c-2.209,-0.094 -4.985,0.497 -5.706,1.972c0,0 -0.006,11.891 -0.006,11.891c0,0 -2.022,7.169 -7.447,5.821c-2.576,-0.64 -4.494,-3.144 -4.553,-5.825l0.004,-11.972c0.075,-8.083 9.037,-13.943 17.462,-13.897Z" style="fill:#dcdc14;fill-opacity:0.290196;fill-rule:nonzero;"/>
<path d="M231.079,155.415c0.978,0.043 1.271,0.136 1.822,0.326c2.369,0.817 3.981,2.798 4.044,5.674l-0.003,11.972c-0.079,8.426 -9.974,14.304 -18.477,13.863c-5.863,-0.358 -11.74,-0.691 -17.617,-0.963c0,0 -4.512,-1.008 -5.48,-4.302c-1.038,-3.535 1.834,-7.699 5.768,-7.691c5.929,0.011 12.148,0.671 18.098,0.98c2.206,0.094 4.984,-0.497 5.705,-1.971c0,0 0.006,-11.891 0.006,-11.891c0,0 0.959,-5.781 5.869,-5.997c0.088,0 0.177,0 0.265,0Z" style="fill:#dcdc14;fill-opacity:0.290196;fill-rule:nonzero;"/>
<path d="M100.706,199.292c-24.359,0.84 -48.585,2.928 -72.448,6.347c-1.556,0.222 -3.733,0.54 -3.733,0.54c-11.662,1.38 -23.352,-8.08 -23.607,-20.551c-0.289,-42.436 -0.002,-84.769 0.003,-127.122l0.002,-14.221c0,0 0.128,-4.078 1.299,-7.251c3.154,-8.542 12.267,-14.419 21.588,-13.636c66.139,6.435 133.708,6.73 200.217,0.695c2.744,-0.249 5.486,-0.518 8.227,-0.776c0,0 0.702,-0.094 2.21,-0.076c10.783,0.265 20.396,9.542 20.618,20.719c0.309,47.21 0.003,94.335 -0.011,141.532c0,0 -0.134,4.181 -1.363,7.421c-3.307,8.722 -12.862,14.558 -22.376,13.365c-26.207,-3.649 -52.741,-5.999 -79.307,-6.943l0.001,0.044l0,5.878c15.996,2.139 31.752,6.107 46.937,11.438c0,0 4.243,1.819 4.555,5.332c0.319,3.603 -3.267,7.006 -6.871,6.463c-1.716,-0.259 -1.996,-0.591 -2.79,-0.868c-42.618,-14.74 -89.902,-16.767 -133.209,0.508c0,0 -3.387,0.814 -5.473,-0.53c-3.702,-2.386 -3.549,-8.8 1.549,-10.825c14.217,-5.646 28.976,-9.52 43.979,-11.576l0,-5.82l0.003,-0.087Zm133.305,-164.054c-6.231,0.092 -13.359,1.223 -20.194,1.774c-60.569,4.884 -121.882,4.784 -182.565,-0.838c-4.004,-0.371 -8.257,-1.521 -11.787,-0.521c-3.694,1.046 -6.463,4.625 -6.541,8.533c-0.312,47.102 -0.328,94.181 -0.007,141.278c0.103,5.025 4.817,9.434 10.116,8.807c17.904,-2.367 35.924,-4.614 54.005,-5.87c50.801,-3.53 101.921,-1.466 152.431,5.499c6.12,0.844 13.448,-0.767 13.602,-8.306c0.316,-47.083 0.321,-94.277 0.012,-141.476c-0.092,-4.603 -3.973,-8.697 -8.718,-8.876c-0.118,-0.003 -0.236,-0.004 -0.354,-0.004Z" style="fill:#dcdc14;fill-rule:nonzero;"/>
<circle cx="128" cy="115.258" r="46.156" style="fill:#dcdc14;fill-opacity:0.290196;"/>
<path d="M128.336,63.103c19.003,0.181 37.448,11.518 46.107,28.413c7.249,14.144 7.526,31.683 0.7,46.065c-11.141,23.471 -41.263,36.436 -66.853,25.973c-16.693,-6.826 -29.278,-22.841 -31.893,-40.688c-2.391,-16.314 3.491,-33.649 15.399,-45.139c9.43,-9.099 22.236,-14.41 35.532,-14.621c0.336,-0.003 0.672,-0.004 1.008,-0.003Zm-0.596,12c-18.313,0.174 -35.389,14.05 -39.079,32.062c-2.683,13.095 1.702,27.453 11.294,36.82c11.083,10.821 28.666,14.41 43.214,8.461c16.928,-6.922 27.662,-26.479 24.314,-44.545c-3.324,-17.934 -20.139,-32.38 -38.704,-32.792c-0.346,-0.005 -0.693,-0.007 -1.039,-0.006Z" style="fill:#dcdc14;fill-rule:nonzero;"/>
<path d="M113.256,90.44c0.815,0.067 1.6,0.275 2.343,0.623l40.23,20.115c3.826,2.038 4.442,8.227 0.272,10.588c-0.089,0.051 -0.182,0.097 -0.272,0.145l-40.23,20.115c-2.475,1.16 -3.069,0.726 -4.158,0.449c-2.594,-0.658 -4.447,-2.736 -4.525,-5.816l0,-40.229c0.025,-0.993 0.109,-1.269 0.277,-1.803c0.772,-2.45 2.746,-4.138 5.758,-4.197c0.102,0.003 0.203,0.006 0.305,0.01Z" style="fill:#dcdc14;"/>
</g>
</svg>